<svg xmlns="http://www.w3.org/2000/svg" viewBox="0 0 1024 1024">
  <defs>
    <linearGradient id="bg" x1="156" x2="868" y1="92" y2="932" gradientUnits="userSpaceOnUse">
      <stop stop-color="#111827"/>
      <stop offset="1" stop-color="#09090B"/>
    </linearGradient>
    <radialGradient id="glow" cx="0" cy="0" r="1" gradientTransform="matrix(472 504 -504 472 734 258)" gradientUnits="userSpaceOnUse">
      <stop stop-color="#4F46E5" stop-opacity=".58"/>
      <stop offset=".58" stop-color="#0EA5E9" stop-opacity=".22"/>
      <stop offset="1" stop-color="#0EA5E9" stop-opacity="0"/>
    </radialGradient>
    <linearGradient id="armTop" x1="486" x2="780" y1="428" y2="244" gradientUnits="userSpaceOnUse">
      <stop stop-color="#A5B4FC"/>
      <stop offset="1" stop-color="#67E8F9"/>
    </linearGradient>
    <linearGradient id="armMiddle" x1="510" x2="820" y1="512" y2="512" gradientUnits="userSpaceOnUse">
      <stop stop-color="#A5B4FC"/>
      <stop offset="1" stop-color="#22D3EE"/>
    </linearGradient>
    <linearGradient id="armBottom" x1="486" x2="780" y1="596" y2="780" gradientUnits="userSpaceOnUse">
      <stop stop-color="#A5B4FC"/>
      <stop offset="1" stop-color="#34D399"/>
    </linearGradient>
  </defs>
  <rect width="1024" height="1024" rx="224" fill="url(#bg)"/>
  <rect width="1024" height="1024" rx="224" fill="url(#glow)"/>

  <path d="M501 424C579 354 648 300 728 262" fill="none" stroke="url(#armTop)" stroke-width="72" stroke-linecap="round"/>
  <path d="M524 512C619 499 698 503 788 512" fill="none" stroke="url(#armMiddle)" stroke-width="72" stroke-linecap="round"/>
  <path d="M501 600C579 670 648 724 728 762" fill="none" stroke="url(#armBottom)" stroke-width="72" stroke-linecap="round"/>

  <circle cx="744" cy="254" r="80" fill="#67E8F9"/>
  <circle cx="804" cy="512" r="80" fill="#22D3EE"/>
  <circle cx="744" cy="770" r="80" fill="#34D399"/>
  <circle cx="744" cy="254" r="34" fill="#F8FAFC"/>
  <circle cx="804" cy="512" r="34" fill="#F8FAFC"/>
  <circle cx="744" cy="770" r="34" fill="#F8FAFC"/>

  <path d="M282 616C260 680 224 720 174 758" fill="none" stroke="#F8FAFC" stroke-width="54" stroke-linecap="round"/>
  <path d="M386 646C378 718 344 764 296 806" fill="none" stroke="#F8FAFC" stroke-width="54" stroke-linecap="round"/>
  <path d="M490 618C516 686 568 714 634 736" fill="none" stroke="#F8FAFC" stroke-width="54" stroke-linecap="round"/>

  <ellipse cx="386" cy="450" rx="204" ry="232" fill="#F8FAFC"/>
  <path d="M244 412C268 298 320 238 386 214C452 238 504 298 528 412" fill="#E0F2FE" opacity=".72"/>
  <circle cx="326" cy="448" r="24" fill="#111827"/>
  <circle cx="446" cy="448" r="24" fill="#111827"/>
  <path d="M342 536C370 558 404 558 430 536" fill="none" stroke="#111827" stroke-width="24" stroke-linecap="round"/>
</svg>
